<svg width="22" height="22" viewBox="0 0 22 22" fill="none" xmlns="http://www.w3.org/2000/svg">
<path d="M5.18111 12.456C5.23642 12.7987 5.33475 13.1011 5.72281 13.1668C6.0137 13.2162 6.91067 13.212 7.21474 13.1774C7.97592 13.0907 7.77955 12.322 7.91885 11.7631C8.33003 11.5814 8.7652 11.4639 9.15413 11.2314C9.64081 11.4847 10.023 12.1915 10.6229 11.7634C10.7906 11.6438 11.5852 10.8485 11.6999 10.6828C12.1187 10.0777 11.4049 9.69543 11.1878 9.20722C11.3493 8.79979 11.6089 8.42076 11.6601 7.97397C12.0505 7.8997 12.9097 7.9719 13.0212 7.46238C13.0774 7.20526 13.0596 6.07882 13.032 5.77731C12.9618 5.00624 11.9416 5.34059 11.6996 5.12844C11.6709 5.10329 11.5029 4.55974 11.4629 4.45648C11.4125 4.32718 11.251 4.09491 11.234 3.98898C11.1954 3.74843 11.7611 3.32176 11.8187 3.03534C11.8424 2.91699 11.8281 2.84035 11.7988 2.72792C11.7233 2.43676 10.6668 1.35856 10.3809 1.29819C9.89366 1.19582 9.62413 1.71332 9.23198 1.89411C8.83017 1.67959 8.41402 1.48993 7.97563 1.36477C7.84481 0.908809 7.99494 0.0966019 7.34614 0.0273646C6.98208 -0.0113965 6.16441 -0.00695817 5.79626 0.0279564C5.14863 0.0897965 5.27095 0.890759 5.1694 1.36802C4.9265 1.44022 4.68272 1.51952 4.44714 1.6145C4.29233 1.67693 4.03187 1.86274 3.8993 1.88908C3.73454 1.92163 3.40823 1.54911 3.24113 1.44407C2.99413 1.28902 2.84576 1.22481 2.56277 1.35796C2.39156 1.43844 1.58999 2.25183 1.44133 2.43736C0.90929 3.10103 1.60843 3.40431 1.87123 3.96028L1.42172 5.19442C0.93914 5.33497 0.147228 5.14974 0.0363135 5.83324C-0.0131445 6.13741 -0.0075841 7.02388 0.0260707 7.34196C0.105086 8.087 0.903437 7.93876 1.44338 8.03522L1.90723 9.13266L1.89377 9.27143C1.61955 9.64158 1.08547 10.0502 1.30583 10.5612C1.39304 10.7639 2.37108 11.7524 2.57154 11.8409C3.13168 12.088 3.48491 11.4636 3.91188 11.224L5.04561 11.6832C5.18082 11.7773 5.15155 12.2702 5.18169 12.4569L5.18111 12.456ZM4.03568 6.67119C4.03568 5.25212 5.1735 4.10171 6.57705 4.10171C7.9806 4.10171 9.11843 5.25212 9.11843 6.67119C9.11843 8.09025 7.9806 9.24066 6.57705 9.24066C5.1735 9.24066 4.03568 8.09025 4.03568 6.67119Z" fill="#FDB951"/>
<path d="M21.9599 11.7631C21.9166 11.3027 21.967 10.7804 21.401 10.6798C21.2465 10.6523 20.8215 10.6872 20.753 10.6405C20.717 10.6159 20.5637 10.1845 20.5207 10.0943C20.4434 9.93185 20.243 9.76852 20.3152 9.58862C20.4516 9.24924 20.852 9.05632 20.6164 8.56574C20.5377 8.40153 19.6597 7.65234 19.4862 7.62483C18.9433 7.53843 18.7475 8.12487 18.5429 8.14499C18.4464 8.15446 18.1651 7.99646 18.0419 7.9577C17.8927 7.91065 17.6442 7.88668 17.5242 7.83047C17.3042 7.7272 17.4795 6.96263 16.9594 6.79605C16.7449 6.72711 15.9211 6.79635 15.6794 6.85197C15.4599 6.90257 15.2936 7.04489 15.2301 7.26562C15.1842 7.4254 15.1883 7.97515 15.1687 8.00652C15.1526 8.03226 14.7057 8.20595 14.617 8.25122C14.4698 8.32667 14.2202 8.57432 14.0628 8.51307C13.6776 8.36276 13.3981 7.83875 12.8799 8.3172C12.7394 8.4468 12.1561 9.18178 12.1316 9.33948C12.1131 9.45754 12.1166 9.62561 12.1611 9.73804C12.229 9.90966 12.6639 10.2683 12.6779 10.3408C12.7013 10.4627 12.3663 11.1598 12.3865 11.3663C11.9659 11.5642 11.3727 11.4281 11.311 12.0684C11.287 12.3188 11.3358 13.0851 11.421 13.3067C11.6639 13.9387 12.3423 13.5606 12.6016 13.7186C12.6607 13.7547 12.9258 14.4917 13.0642 14.595C12.9118 15.0211 12.4655 15.2359 12.6654 15.7368C12.7429 15.9309 13.3958 16.5079 13.5916 16.6224C13.9369 16.8242 14.1257 16.7508 14.4236 16.5168C14.5178 16.4428 14.747 16.1517 14.8198 16.133C14.9176 16.1079 15.5974 16.4606 15.7879 16.4307C15.9793 16.8831 15.8749 17.5923 16.5708 17.6065C16.7829 17.611 17.344 17.5565 17.5532 17.5116C18.3887 17.332 17.9348 16.602 18.1151 16.3005C18.1596 16.2259 18.9556 15.9306 19.0814 15.7975C19.2889 15.7472 19.7691 16.5041 20.3275 16.1076C20.4373 16.0298 20.9482 15.4294 21.0314 15.3004C21.1879 15.0578 21.2415 14.8882 21.1153 14.6134C21.0223 14.411 20.6418 14.1538 20.6257 13.9769C20.6108 13.8127 20.9541 13.2333 20.926 12.9916C21.3304 12.8082 21.7355 12.8922 21.9994 12.4392V11.8317L21.9599 11.7628V11.7631ZM16.7133 14.2689C15.5834 14.2689 14.6674 13.3428 14.6674 12.2004C14.6674 11.058 15.5834 10.1319 16.7133 10.1319C17.8432 10.1319 18.7592 11.058 18.7592 12.2004C18.7592 13.3428 17.8432 14.2689 16.7133 14.2689Z" fill="#FDB951"/>
<path d="M12.107 16.6488C12.0821 16.6192 11.8415 15.9626 11.8351 15.9215C11.8058 15.7345 12.1491 15.5229 12.1693 15.2335C12.1924 14.9048 11.613 14.2512 11.3253 14.1849C10.8571 14.0766 10.6666 14.49 10.4798 14.4802C10.3034 14.4707 9.88078 14.1299 9.64461 14.1263C9.7008 13.2529 9.14126 13.1481 8.41343 13.2188C7.8615 13.2724 7.87993 13.7071 7.76316 14.1334C7.53724 14.1172 7.11348 14.4281 6.95252 14.4364C6.70406 14.4494 6.49482 13.9047 5.96746 14.1737C5.78748 14.2654 5.3008 14.7758 5.25281 14.9737C5.14219 15.4303 5.60516 15.6865 5.59638 15.8389C5.59316 15.8948 5.44888 16.1286 5.41201 16.2159C5.37338 16.3076 5.32217 16.5609 5.28324 16.6064C5.19135 16.7144 4.61278 16.607 4.40822 16.9801C4.27419 17.2251 4.26921 17.9403 4.4088 18.1829C4.59347 18.5037 4.94289 18.4856 5.26276 18.5344C5.28881 18.7312 5.53112 19.0901 5.55395 19.241C5.58702 19.4591 5.11175 19.6674 5.18521 20.1313C5.22706 20.3961 5.82582 21.0086 6.08481 21.048C6.48136 21.1083 6.72982 20.6867 6.91301 20.6873C7.05554 20.6876 7.43803 20.9882 7.63762 20.9835C7.73156 21.3643 7.6979 21.9043 8.20331 21.9833C8.35578 22.0069 8.98966 22.0072 9.12136 21.9626C9.5097 21.83 9.48015 21.3593 9.56297 21.0418C9.81113 21.0285 10.1187 20.7906 10.3247 20.7459C10.5334 20.7006 10.7701 21.2332 11.2621 21.0888C11.4368 21.0376 12.0318 20.4713 12.0742 20.305C12.1757 19.9073 11.9317 19.6996 11.7502 19.3975C11.8799 19.2218 11.9855 18.7176 12.0798 18.5835C12.1 18.5551 12.5781 18.5403 12.7502 18.4282C13.0932 18.2048 13.1023 17.397 12.9457 17.058C12.7499 16.6334 12.2258 16.792 12.1061 16.6485L12.107 16.6488ZM8.72628 19.1392C8.70901 19.1392 8.69204 19.1383 8.67506 19.138C8.35256 19.1383 8.02421 19.0363 7.73653 18.8111C7.21649 18.4034 7.0608 17.7924 7.18225 17.2447C7.32273 16.5121 7.96041 15.9587 8.72598 15.9587C9.59486 15.9587 10.299 16.6706 10.299 17.5491C10.299 18.4276 9.59486 19.1395 8.72598 19.1395L8.72628 19.1392Z" fill="#FDB951"/>
</svg>
