<svg width="22" height="17" viewBox="0 0 22 17" fill="none" xmlns="http://www.w3.org/2000/svg">
<path d="M21.989 15.2511C21.8791 16.1821 21.0827 16.9254 20.162 16.9886C13.9262 16.9483 7.67321 17.0734 1.44713 16.9254C-0.399213 16.4167 -0.50421 13.8723 1.27859 13.1801C1.29475 12.0418 1.21829 10.8915 1.36905 9.76132C1.8445 6.19775 4.40483 3.11031 7.73675 1.91593C7.87621 1.04476 8.37266 0.302016 9.26056 0.100141C9.86093 -0.0364376 11.7218 -0.0108631 12.3846 0.0451832C13.4072 0.131701 14.1066 0.887509 14.2229 1.90124C17.5634 3.11195 20.1308 6.1798 20.6084 9.76077C20.7591 10.8909 20.6821 12.0407 20.6988 13.1796C21.338 13.4217 21.9023 14.078 21.9895 14.7728C22.004 14.8866 22.003 15.1363 21.9895 15.2506L21.989 15.2511ZM7.76529 8.66923V3.30348L6.47409 3.9842L6.47678 7.28004C6.41217 7.81548 5.7698 8.06034 5.37888 7.69305C5.3455 7.66149 5.18666 7.38506 5.18666 7.36602V5.04146C4.11568 6.01329 3.32147 7.36003 2.90848 8.7552C2.48472 10.1868 2.55903 11.5989 2.56549 13.0789H19.4103C19.4168 11.5994 19.4911 10.1868 19.0673 8.7552C18.6543 7.36003 17.8601 6.01275 16.7892 5.04146V7.36602C16.7892 7.38506 16.6303 7.66149 16.5969 7.69305C16.206 8.06088 15.5636 7.81602 15.499 7.28004L15.5017 3.9842L14.2105 3.30348V8.66923C14.2105 8.69861 14.0415 8.97558 13.9941 9.0153C13.6107 9.33689 13.0561 9.13556 12.9312 8.65944L12.9016 1.82506C12.8116 1.58074 12.6059 1.3805 12.3426 1.34785C11.7735 1.27711 10.2578 1.28854 9.67517 1.34676C9.3451 1.37995 9.11087 1.60686 9.05326 1.93443L9.04464 8.65998C8.91972 9.1361 8.36458 9.33743 7.98175 9.01585C7.92898 8.97123 7.77606 8.7231 7.76529 8.66977V8.66923ZM20.5136 14.571C20.4533 14.51 20.3327 14.4676 20.2589 14.4159H1.71797C1.06052 14.6945 1.16767 15.5531 1.85581 15.687L20.2288 15.6658C20.6843 15.508 20.8749 14.9361 20.5136 14.571Z" fill="#FDB951"/>
</svg>
