<svg width="208" height="60" viewBox="0 0 208 60" fill="none" xmlns="http://www.w3.org/2000/svg">
<path d="M35.4261 60L0 0H70.1261L35.4261 60Z" fill="#144683"/>
<path d="M70.4769 17.9538H75.2826V20.0297H70.4769V22.2071H75.7028V24.656H67.4744V13.4653H75.5967V15.9143H70.4769V17.9578V17.9538Z" fill="#144683"/>
<path d="M80.6104 24.652H77.6079V13.4613H82.6827L85.9096 22.057H86.0279L85.8484 13.4613H88.8509V24.652H83.7311L80.5492 16.0562H80.4309L80.6104 24.652Z" fill="#144683"/>
<path d="M97.5728 13.4613H100.681L97.3933 24.652H92.7101L89.5281 13.4613H92.5754L95.0068 22.0854H95.0966L97.5728 13.4613Z" fill="#144683"/>
<path d="M104.373 24.652H101.371V13.4613H104.373V24.652Z" fill="#144683"/>
<path d="M106.16 13.4613H111.957C114.556 13.5059 115.833 14.0573 115.833 16.8469C115.833 18.712 115.833 19.8027 113.699 20.2933V20.4109C114.931 20.4555 115.726 21.1285 115.726 22.3976V24.652H112.724V23.0869C112.753 22.2517 112.394 21.684 111.492 21.684H109.163V24.652H106.16V13.4613ZM111.488 19.085C112.781 19.085 112.732 18.6066 112.732 17.3375C112.732 16.336 112.475 16.0522 111.488 16.0522H109.158V19.081H111.488V19.085Z" fill="#144683"/>
<path d="M116.938 20.6379V17.4753C116.938 14.0289 119.1 13.3721 122.148 13.3721C125.195 13.3721 127.357 14.0289 127.357 17.4753V20.6379C127.357 24.0843 125.195 24.7412 122.148 24.7412C119.1 24.7412 116.938 24.0843 116.938 20.6379ZM124.265 20.3095V17.7875C124.265 16.1333 123.71 15.967 122.148 15.967C120.585 15.967 120.075 16.1292 120.03 17.7875V20.3095C120.075 21.98 120.585 22.1462 122.148 22.1462C123.71 22.1462 124.265 21.9841 124.265 20.3095Z" fill="#144683"/>
<path d="M131.767 24.652H128.764V13.4613H133.839L137.066 22.057H137.184L137.005 13.4613H140.007V24.652H134.888L131.706 16.0562H131.587L131.767 24.652Z" fill="#144683"/>
<path d="M141.843 24.652V13.4613H146.604L148.75 20.4879H148.856L150.9 13.4613H155.779V24.652H152.776L153.078 16.0724H152.972L150.12 24.652H147.522L144.638 16.0724H144.548L144.85 24.652H141.843Z" fill="#144683"/>
<path d="M160.637 17.9538H165.443V20.0297H160.637V22.2071H165.863V24.656H157.635V13.4653H165.757V15.9143H160.637V17.9578V17.9538Z" fill="#144683"/>
<path d="M170.771 24.652H167.768V13.4613H172.843L176.07 22.057H176.188L176.009 13.4613H179.011V24.652H173.892L170.71 16.0562H170.591L170.771 24.652Z" fill="#144683"/>
<path d="M185.828 24.652H182.826V16.0562H179.941V13.4613H188.859V16.0562H185.828V24.652Z" fill="#144683"/>
<path d="M191.923 22.726L191.368 24.652H188.243L191.621 13.4613H196.186L199.609 24.652H196.545L195.957 22.726H191.919H191.923ZM193.934 15.6994L192.567 20.5487H195.362L193.967 15.6994H193.934Z" fill="#144683"/>
<path d="M203.3 22.057H208V24.652H200.298V13.4613H203.3V22.057Z" fill="#144683"/>
<path d="M75.6048 29.627H81.312C84.4491 29.627 85.8443 30.7906 85.8443 33.9695V36.313C85.8443 39.3702 84.853 40.8217 81.7159 40.8217H75.6048V29.627ZM78.6073 38.2227H81.2345C82.3441 38.2227 82.7521 37.4929 82.7521 36.313V33.9695C82.7521 32.522 82.287 32.2219 81.2345 32.2219H78.6073V38.2227Z" fill="#144683"/>
<path d="M87.317 29.627H93.1139C95.7126 29.6716 96.9894 30.223 96.9894 33.0126C96.9894 34.8777 96.9894 35.9684 94.8559 36.459V36.5766C96.0879 36.6212 96.8834 37.2942 96.8834 38.5633V40.8177H93.8809V39.2526C93.9094 38.4174 93.5504 37.8497 92.6489 37.8497H90.3236V40.8177H87.3211V29.627H87.317ZM92.6448 35.2548C93.938 35.2548 93.8931 34.7763 93.8931 33.5072C93.8931 32.5057 93.6361 32.2219 92.6448 32.2219H90.3195V35.2507H92.6448V35.2548Z" fill="#144683"/>
<path d="M101.534 40.8177H98.5315V29.627H101.534V40.8177Z" fill="#144683"/>
<path d="M106.335 38.2227H111.035V40.8177H103.333V29.627H106.335V38.2227Z" fill="#144683"/>
<path d="M115.119 38.2227H119.818V40.8177H112.116V29.627H115.119V38.2227Z" fill="#144683"/>
<path d="M123.959 40.8177H120.956V29.627H123.959V40.8177Z" fill="#144683"/>
<path d="M128.809 40.8177H125.807V29.627H130.882L134.109 38.2227H134.227L134.047 29.627H137.05V40.8177H131.93L128.748 32.2219H128.63L128.809 40.8177Z" fill="#144683"/>
<path d="M145.727 33.1058C145.666 31.9705 144.691 31.9868 143.789 31.9868C141.627 31.9868 141.566 32.6436 141.537 34.4479V36.2684C141.537 38.2511 142.227 38.462 143.789 38.462C145.352 38.462 145.727 38.1173 145.727 36.5685H143.655V34.4925H148.774V36.4468C148.774 40.2217 147.811 40.9069 143.789 40.9069C140.244 40.9069 138.445 40.3109 138.445 36.682V33.787C138.445 30.0851 140.485 29.5337 143.789 29.5337C146.702 29.5337 148.774 29.5499 148.774 33.1018H145.727V33.1058Z" fill="#144683"/>
<path d="M158.683 40.8177H155.681V29.627H158.683V40.8177Z" fill="#144683"/>
<path d="M163.53 40.8177H160.527V29.627H165.602L168.829 38.2227H168.947L168.768 29.627H171.77V40.8177H166.65L163.468 32.2219H163.35L163.53 40.8177Z" fill="#144683"/>
<path d="M183.123 36.5806V36.909C183.123 38.1335 183.107 39.2364 182.087 40.0879C181.067 40.9231 179.819 40.9069 178.514 40.9069C175.45 40.9069 173.214 40.7569 173.214 36.6698V33.7748C173.214 30.073 175.209 29.5378 178.514 29.5378C181.606 29.5378 183.046 29.85 183.107 33.2072V33.641H180.015V33.2072C179.909 32.2057 179.203 32.1327 178.183 32.1327C176.47 32.1327 176.307 32.6558 176.307 34.2533V36.0008C176.307 37.6713 176.38 38.3119 178.183 38.3119C179.427 38.3119 180.031 38.2227 180.031 36.909V36.5806H183.123Z" fill="#144683"/>
<path d="M187.399 40.8177H184.967V38.2227H187.399V40.8177Z" fill="#144683"/>
<path d="M26.5574 16.9361C26.4962 15.8008 25.5212 15.817 24.6196 15.817C22.4575 15.817 22.3963 16.4738 22.3677 18.2781V20.0987C22.3677 22.0814 23.0572 22.2922 24.6196 22.2922C26.182 22.2922 26.5574 21.9476 26.5574 20.3987H24.485V18.3227H29.6047V20.2771C29.6047 24.0519 28.642 24.7371 24.6196 24.7371C21.0745 24.7371 19.2755 24.1411 19.2755 20.5122V17.6172C19.2755 13.9154 21.3193 13.364 24.6196 13.364C27.5324 13.364 29.6047 13.3802 29.6047 16.932H26.5574V16.9361Z" fill="white"/>
<path d="M34.1411 17.9538H38.9467V20.0297H34.1411V22.2071H39.3669V24.656H31.1386V13.4653H39.2608V15.9143H34.1411V17.9578V17.9538Z" fill="white"/>
<path d="M40.8477 20.6379V17.4753C40.8477 14.0289 43.0099 13.3721 46.0572 13.3721C49.1046 13.3721 51.2667 14.0289 51.2667 17.4753V20.6379C51.2667 24.0843 49.1046 24.7412 46.0572 24.7412C43.0099 24.7412 40.8477 24.0843 40.8477 20.6379ZM48.1745 20.3095V17.7875C48.1745 16.1333 47.6197 15.967 46.0572 15.967C44.4948 15.967 43.9849 16.1292 43.94 17.7875V20.3095C43.9849 21.98 44.4948 22.1462 46.0572 22.1462C47.6197 22.1462 48.1745 21.9841 48.1745 20.3095Z" fill="white"/>
<path d="M64.0722 17.8727H54.6731V20.8366H64.0722V17.8727Z" fill="#144681"/>
<path d="M58.6506 20.8366H54.6731V17.8727H59.9927L58.6506 20.8366Z" fill="white"/>
</svg>
