<svg width="356" height="115" viewBox="0 0 356 115" fill="none" xmlns="http://www.w3.org/2000/svg">
<path d="M348.289 36.3933V22.2106H215.277V22.6454C213.055 22.0634 210.967 22.0634 209.768 22.0634C207.941 22.0634 203.985 22.0634 200.705 24.1707C197.974 22.2976 194.634 22.2373 193.048 22.2106H165.409L165.356 22.3912L165.302 22.2106H120.889L133.674 0H0L67.5265 115L107.742 45.0835H114.711V51.3787H128.058V78.0515H143.44C144.819 78.0515 146.104 77.911 147.269 77.6233V78.0515H239.589V77.6769C241.744 78.1987 243.853 78.1987 245.292 78.1987C253.418 78.1987 258.827 76.0378 258.827 65.4878L259.443 78.0515H296.56V77.7036C298.655 78.1987 300.723 78.1987 302.263 78.1987H302.484C303.829 78.1987 305.616 78.1987 307.497 77.6835V78.0515H322.197V63.066H315.175V62.3636L315.148 60.3566V60.0489C315.068 55.7004 313.702 53.0244 311.841 51.3787H327.378L327.619 50.5492L327.873 51.3787H356V36.3933H348.289Z" fill="white"/>
<path d="M67.2922 104.243L9.17043 5.24491H124.236L67.2922 104.243Z" fill="#144683"/>
<path d="M124.805 34.8679H132.69V38.2932H124.805V41.8857H133.38V45.9264H119.878V27.4622H133.205V31.5029H124.805V34.8746V34.8679Z" fill="#144683"/>
<path d="M141.432 45.9197H136.505V27.4555H144.833L150.127 41.6382H150.321L150.027 27.4555H154.953V45.9197H146.553L141.332 31.7371H141.138L141.432 45.9197Z" fill="#144683"/>
<path d="M169.265 27.4555H174.365L168.97 45.9197H161.286L156.065 27.4555H161.065L165.054 41.685H165.202L169.265 27.4555Z" fill="#144683"/>
<path d="M180.423 45.9197H175.497V27.4555H180.423V45.9197Z" fill="#144683"/>
<path d="M183.355 27.4555H192.867C197.131 27.5291 199.226 28.4389 199.226 33.0416C199.226 36.119 199.226 37.9186 195.725 38.728V38.9221C197.747 38.9956 199.052 40.1062 199.052 42.2001V45.9197H194.125V43.3374C194.172 41.9593 193.583 41.0227 192.104 41.0227H188.282V45.9197H183.355V27.4555ZM192.104 36.7411C194.226 36.7411 194.145 35.9517 194.145 33.8578C194.145 32.2054 193.724 31.7371 192.104 31.7371H188.282V36.7344H192.104V36.7411Z" fill="#144683"/>
<path d="M201.04 39.2967V34.0785C201.04 28.3921 204.588 27.3083 209.588 27.3083C214.588 27.3083 218.136 28.3921 218.136 34.0785V39.2967C218.136 44.9831 214.588 46.0669 209.588 46.0669C204.588 46.0669 201.04 44.9831 201.04 39.2967ZM213.062 38.7548V34.5937C213.062 31.8642 212.151 31.5899 209.588 31.5899C207.024 31.5899 206.187 31.8575 206.114 34.5937V38.7548C206.187 41.5111 207.024 41.7853 209.588 41.7853C212.151 41.7853 213.062 41.5177 213.062 38.7548Z" fill="#144683"/>
<path d="M225.378 45.9197H220.452V27.4555H228.779L234.073 41.6382H234.268L233.973 27.4555H238.9V45.9197H230.499L225.278 31.7371H225.084L225.378 45.9197Z" fill="#144683"/>
<path d="M241.905 45.9197V27.4555H249.717L253.238 39.0492H253.412L256.765 27.4555H264.771V45.9197H259.844L260.34 31.7638H260.166L255.487 45.9197H251.223L246.49 31.7638H246.343L246.838 45.9197H241.905Z" fill="#144683"/>
<path d="M272.75 34.8679H280.635V38.2932H272.75V41.8857H281.325V45.9264H267.823V27.4622H281.151V31.5029H272.75V34.8746V34.8679Z" fill="#144683"/>
<path d="M289.37 45.9197H284.444V27.4555H292.771L298.066 41.6382H298.26L297.965 27.4555H302.892V45.9197H294.491L289.27 31.7371H289.076L289.37 45.9197Z" fill="#144683"/>
<path d="M314.084 45.9197H309.157V31.7371H304.425V27.4555H319.057V31.7371H314.084V45.9197Z" fill="#144683"/>
<path d="M324.078 42.7487L323.167 45.9264H318.04L323.582 27.4622H331.073L336.689 45.9264H331.662L330.698 42.7487H324.071H324.078ZM327.384 31.1483L325.142 39.1495H329.727L327.438 31.1483H327.384Z" fill="#144683"/>
<path d="M342.753 41.6382H350.464V45.9197H337.826V27.4555H342.753V41.6382Z" fill="#144683"/>
<path d="M133.226 54.1283H142.59C147.738 54.1283 150.027 56.0483 150.027 61.2932V65.16C150.027 70.2042 148.4 72.5992 143.253 72.5992H133.226V54.1283ZM138.152 68.3109H142.463C144.284 68.3109 144.953 67.1068 144.953 65.16V61.2932C144.953 58.9049 144.19 58.4098 142.463 58.4098H138.152V68.3109Z" fill="#144683"/>
<path d="M152.437 54.1283H161.948C166.212 54.2019 168.307 55.1117 168.307 59.7144C168.307 62.7917 168.307 64.5913 164.807 65.4008V65.5948C166.828 65.6684 168.133 66.7789 168.133 68.8729V72.5925H163.207V70.0102C163.254 68.6321 162.665 67.6955 161.185 67.6955H157.37V72.5925H152.443V54.1283H152.437ZM161.185 63.4139C163.307 63.4139 163.234 62.6245 163.234 60.5305C163.234 58.8781 162.812 58.4098 161.185 58.4098H157.37V63.4072H161.185V63.4139Z" fill="#144683"/>
<path d="M175.764 72.5992H170.838V54.135H175.764V72.5992Z" fill="#144683"/>
<path d="M183.65 68.3109H191.361V72.5925H178.723V54.1283H183.65V68.3109Z" fill="#144683"/>
<path d="M198.054 68.3109H205.766V72.5925H193.128V54.1283H198.054V68.3109Z" fill="#144683"/>
<path d="M212.566 72.5992H207.64V54.135H212.566V72.5992Z" fill="#144683"/>
<path d="M220.519 72.5992H215.592V54.135H223.919L229.214 68.3176H229.408L229.113 54.135H234.04V72.5992H225.639L220.418 58.4165H220.224L220.519 72.5992Z" fill="#144683"/>
<path d="M248.284 59.8682C248.184 57.9951 246.584 58.0218 245.105 58.0218C241.557 58.0218 241.457 59.1056 241.41 62.0826V65.0864C241.41 68.3578 242.541 68.7056 245.105 68.7056C247.668 68.7056 248.284 68.137 248.284 65.5814H244.884V62.1562H253.285V65.3807C253.285 71.6091 251.705 72.7397 245.105 72.7397C239.288 72.7397 236.336 71.7563 236.336 65.7688V60.9921C236.336 54.8842 239.683 53.9744 245.105 53.9744C249.884 53.9744 253.285 54.0012 253.285 59.8615H248.284V59.8682Z" fill="#144683"/>
<path d="M269.537 72.5992H264.61V54.135H269.537V72.5992Z" fill="#144683"/>
<path d="M277.496 72.5992H272.569V54.135H280.896L286.191 68.3176H286.385L286.091 54.135H291.017V72.5992H282.616L277.395 58.4165H277.201L277.496 72.5992Z" fill="#144683"/>
<path d="M309.639 65.6015V66.1434C309.639 68.1638 309.612 69.9834 307.939 71.3883C306.266 72.7664 304.217 72.7397 302.075 72.7397C297.048 72.7397 293.38 72.4921 293.38 65.7487V60.9721C293.38 54.8642 296.653 53.9811 302.075 53.9811C307.149 53.9811 309.512 54.4962 309.612 60.0355V60.7513H304.538V60.0355C304.364 58.3831 303.206 58.2627 301.533 58.2627C298.722 58.2627 298.454 59.1257 298.454 61.7615V64.6449C298.454 67.4011 298.574 68.4581 301.533 68.4581C303.575 68.4581 304.565 68.3109 304.565 66.1434V65.6015H309.639Z" fill="#144683"/>
<path d="M316.661 72.5992H312.671V68.3176H316.661V72.5992Z" fill="#144683"/>
<path d="M52.7467 33.1955C52.6463 31.3223 51.0465 31.349 49.5672 31.349C46.0195 31.349 45.9191 32.4328 45.8722 35.4098V38.4136C45.8722 41.685 47.0035 42.0329 49.5672 42.0329C52.1309 42.0329 52.7467 41.4642 52.7467 38.9087H49.3463V35.4834H57.7469V38.708C57.7469 44.9363 56.1672 46.0669 49.5672 46.0669C43.7503 46.0669 40.7984 45.0835 40.7984 39.096V34.3194C40.7984 28.2115 44.1519 27.3016 49.5672 27.3016C54.3465 27.3016 57.7469 27.3284 57.7469 33.1888H52.7467V33.1955Z" fill="white"/>
<path d="M65.1837 34.8679H73.0689V38.2932H65.1837V41.8857H73.7583V45.9264H60.2571V27.4622H73.5843V31.5029H65.1837V34.8746V34.8679Z" fill="white"/>
<path d="M76.1949 39.2967V34.0785C76.1949 28.3921 79.7426 27.3083 84.7428 27.3083C89.743 27.3083 93.2907 28.3921 93.2907 34.0785V39.2967C93.2907 44.9831 89.743 46.0669 84.7428 46.0669C79.7426 46.0669 76.1949 44.9831 76.1949 39.2967ZM88.2168 38.7548V34.5937C88.2168 31.8642 87.3065 31.5899 84.7428 31.5899C82.1791 31.5899 81.3424 31.8575 81.2687 34.5937V38.7548C81.3424 41.5111 82.1791 41.7853 84.7428 41.7853C87.3065 41.7853 88.2168 41.5177 88.2168 38.7548Z" fill="white"/>
<path d="M114.302 34.7408H98.88V39.6312H114.302V34.7408Z" fill="#144681"/>
<path d="M105.4 39.6312H98.88V34.7408H107.602L105.4 39.6312Z" fill="white"/>
</svg>
