<?xml version="1.0" encoding="UTF-8"?>
<svg id="Layer_1" xmlns="http://www.w3.org/2000/svg" version="1.1" viewBox="0 0 24 24">
  <!-- Generator: Adobe Illustrator 30.3.0, SVG Export Plug-In . SVG Version: 2.1.3 Build 182)  -->
  <defs>
    <style>
      .st0 {
        fill: #fff;
      }
    </style>
  </defs>
  <path class="st0" d="M5,21c-.83,0-1.54-.29-2.13-.88-.58-.58-.88-1.29-.88-2.13v-7c0-.83.29-1.54.88-2.13.58-.58,1.29-.88,2.13-.88.45,0,.86.09,1.24.28s.7.43.99.73h.78V4h10v5h1c.83,0,1.54.29,2.13.88s.88,1.29.88,2.13v8H7.23c-.28.3-.61.54-.99.73-.38.18-.79.28-1.24.28ZM5,19c.28,0,.52-.1.71-.29s.29-.43.29-.71v-7c0-.28-.1-.52-.29-.71s-.43-.29-.71-.29-.52.1-.71.29-.29.43-.29.71v7c0,.28.1.52.29.71s.43.29.71.29ZM10,9h6v-3h-6v3ZM8,18h12v-6c0-.28-.1-.52-.29-.71-.19-.19-.43-.29-.71-.29h-11v7ZM15.71,13.71c.19-.19.29-.43.29-.71s-.1-.52-.29-.71-.43-.29-.71-.29-.52.1-.71.29-.29.43-.29.71.1.52.29.71.43.29.71.29.52-.1.71-.29ZM18.71,13.71c.19-.19.29-.43.29-.71s-.1-.52-.29-.71-.43-.29-.71-.29-.52.1-.71.29-.29.43-.29.71.1.52.29.71.43.29.71.29.52-.1.71-.29ZM15.71,16.71c.19-.19.29-.43.29-.71s-.1-.52-.29-.71-.43-.29-.71-.29-.52.1-.71.29-.29.43-.29.71.1.52.29.71.43.29.71.29.52-.1.71-.29ZM18.71,16.71c.19-.19.29-.43.29-.71s-.1-.52-.29-.71-.43-.29-.71-.29-.52.1-.71.29-.29.43-.29.71.1.52.29.71.43.29.71.29.52-.1.71-.29ZM9,17h4v-5h-4v5ZM8,18v-7,7Z"/>
</svg>