<svg preserveAspectRatio="none" width="100%" height="100%" overflow="visible" style="display: block;" viewBox="0 0 53 65" fill="none" xmlns="http://www.w3.org/2000/svg">
<path id="Vector" d="M2.30571 5.39494L26.5 0L50.6942 5.39494C52.0416 5.69536 53 6.89434 53 8.27914V37.7854C53 43.7125 50.0479 49.2475 45.133 52.5354L26.5 65L7.86697 52.5354C2.95213 49.2475 0 43.7125 0 37.7854V8.27914C0 6.89434 0.958505 5.69536 2.30571 5.39494ZM5.88889 10.6492V37.7854C5.88889 41.7368 7.85696 45.4267 11.1335 47.6187L26.5 57.8982L41.8665 47.6187C45.143 45.4267 47.1111 41.7368 47.1111 37.7854V10.6492L26.5 6.05324L5.88889 10.6492ZM23.5556 26.5909V17.7273H29.4444V26.5909H38.2778V32.5H29.4444V41.3636H23.5556V32.5H14.7222V26.5909H23.5556Z" fill="var(--fill-0, #2A292A)"/>
</svg>
