<svg preserveAspectRatio="none" width="100%" height="100%" overflow="visible" style="display: block;" viewBox="0 0 55 55" fill="none" xmlns="http://www.w3.org/2000/svg">
<path id="Vector" d="M27.5 24.75C35.0938 24.75 41.25 30.9062 41.25 38.5V55H35.75V38.5C35.75 34.1063 32.3155 30.5148 27.9848 30.264L27.5 30.25C23.1063 30.25 19.5149 33.6845 19.264 38.0152L19.25 38.5V55H13.75V38.5C13.75 30.9062 19.9061 24.75 27.5 24.75ZM9.625 33C10.3918 33 11.1377 33.0897 11.8528 33.2591C11.3906 34.6335 11.1065 36.0855 11.0246 37.5906L11 38.5L11.0019 38.7354C10.6908 38.6254 10.3626 38.5514 10.0223 38.519L9.625 38.5C7.48083 38.5 5.71876 40.136 5.51889 42.2276L5.5 42.625V55H0V42.625C0 37.3093 4.30925 33 9.625 33ZM45.375 33C50.6907 33 55 37.3093 55 42.625V55H49.5V42.625C49.5 40.4808 47.864 38.7189 45.7724 38.519L45.375 38.5C44.8932 38.5 44.4306 38.5825 44.0008 38.7343L44 38.5C44 36.6693 43.7019 34.9085 43.1516 33.2629C43.8622 33.0897 44.608 33 45.375 33ZM9.625 16.5C13.422 16.5 16.5 19.578 16.5 23.375C16.5 27.1719 13.422 30.25 9.625 30.25C5.82805 30.25 2.75 27.1719 2.75 23.375C2.75 19.578 5.82805 16.5 9.625 16.5ZM45.375 16.5C49.1719 16.5 52.25 19.578 52.25 23.375C52.25 27.1719 49.1719 30.25 45.375 30.25C41.5781 30.25 38.5 27.1719 38.5 23.375C38.5 19.578 41.5781 16.5 45.375 16.5ZM9.625 22C8.86561 22 8.25 22.6157 8.25 23.375C8.25 24.1343 8.86561 24.75 9.625 24.75C10.3844 24.75 11 24.1343 11 23.375C11 22.6157 10.3844 22 9.625 22ZM45.375 22C44.6157 22 44 22.6157 44 23.375C44 24.1343 44.6157 24.75 45.375 24.75C46.1343 24.75 46.75 24.1343 46.75 23.375C46.75 22.6157 46.1343 22 45.375 22ZM27.5 0C33.575 0 38.5 4.92486 38.5 11C38.5 17.0751 33.575 22 27.5 22C21.4249 22 16.5 17.0751 16.5 11C16.5 4.92486 21.4249 0 27.5 0ZM27.5 5.5C24.4624 5.5 22 7.96243 22 11C22 14.0376 24.4624 16.5 27.5 16.5C30.5376 16.5 33 14.0376 33 11C33 7.96243 30.5376 5.5 27.5 5.5Z" fill="var(--fill-0, #2A292A)"/>
</svg>
