<svg width="234" height="69" viewBox="0 0 234 69" fill="none" xmlns="http://www.w3.org/2000/svg">
<path d="M39.8544 69L0 0H78.8919L39.8544 69Z" fill="white"/>
<path d="M79.2866 20.6468H84.6929V23.0342H79.2866V25.5381H85.1656V28.3544H75.9088V15.4851H85.0463V18.3015H79.2866V20.6515V20.6468Z" fill="white"/>
<path d="M90.6866 28.3498H87.3088V15.4805H93.0181L96.6483 25.3656H96.7814L96.5794 15.4805H99.9572V28.3498H94.1975L90.6178 18.4647H90.4847L90.6866 28.3498Z" fill="white"/>
<path d="M109.769 15.4805H113.267L109.567 28.3498H104.299L100.719 15.4805H104.147L106.883 25.3982H106.984L109.769 15.4805Z" fill="white"/>
<path d="M117.42 28.3498H114.042V15.4805H117.42V28.3498Z" fill="white"/>
<path d="M119.43 15.4805H125.952C128.875 15.5318 130.312 16.1659 130.312 19.3739C130.312 21.5188 130.312 22.7731 127.911 23.3373V23.4725C129.297 23.5238 130.192 24.2978 130.192 25.7573V28.3498H126.814V26.5499C126.847 25.5894 126.443 24.9366 125.428 24.9366H122.808V28.3498H119.43V15.4805ZM125.424 21.9478C126.879 21.9478 126.824 21.3976 126.824 19.9381C126.824 18.7864 126.534 18.46 125.424 18.46H122.803V21.9431H125.424V21.9478Z" fill="white"/>
<path d="M131.555 23.7336V20.0966C131.555 16.1333 133.988 15.3779 137.416 15.3779C140.844 15.3779 143.277 16.1333 143.277 20.0966V23.7336C143.277 27.697 140.844 28.4524 137.416 28.4524C133.988 28.4524 131.555 27.697 131.555 23.7336ZM139.798 23.3559V20.4557C139.798 18.5533 139.174 18.3621 137.416 18.3621C135.658 18.3621 135.085 18.5486 135.034 20.4557V23.3559C135.085 25.277 135.658 25.4682 137.416 25.4682C139.174 25.4682 139.798 25.2817 139.798 23.3559Z" fill="white"/>
<path d="M148.238 28.3498H144.86V15.4805H150.569L154.199 25.3656H154.333L154.131 15.4805H157.508V28.3498H151.749L148.169 18.4647H148.036L148.238 28.3498Z" fill="white"/>
<path d="M159.574 28.3498V15.4805H164.929L167.343 23.5611H167.463L169.762 15.4805H175.251V28.3498H171.873L172.213 18.4833H172.094L168.886 28.3498H165.962L162.717 18.4833H162.616L162.956 28.3498H159.574Z" fill="white"/>
<path d="M180.717 20.6468H186.123V23.0342H180.717V25.5381H186.596V28.3544H177.339V15.4851H186.477V18.3015H180.717V20.6515V20.6468Z" fill="white"/>
<path d="M192.117 28.3498H188.739V15.4805H194.449L198.079 25.3656H198.212L198.01 15.4805H201.388V28.3498H195.628L192.048 18.4647H191.915L192.117 28.3498Z" fill="white"/>
<path d="M209.057 28.3498H205.679V18.4647H202.434V15.4805H212.467V18.4647H209.057V28.3498Z" fill="white"/>
<path d="M215.913 26.135L215.289 28.3498H211.774L215.574 15.4805H220.709L224.56 28.3498H221.113L220.452 26.135H215.909H215.913ZM218.176 18.0543L216.638 23.631H219.782L218.212 18.0543H218.176Z" fill="white"/>
<path d="M228.713 25.3656H234V28.3498H225.335V15.4805H228.713V25.3656Z" fill="white"/>
<path d="M85.0554 34.071H91.476C95.0053 34.071 96.5749 35.4092 96.5749 39.0649V41.76C96.5749 45.2757 95.4596 46.945 91.9304 46.945H85.0554V34.071ZM88.4333 43.9561H91.3888C92.6371 43.9561 93.0961 43.1168 93.0961 41.76V39.0649C93.0961 37.4003 92.5729 37.0552 91.3888 37.0552H88.4333V43.9561Z" fill="white"/>
<path d="M98.2316 34.071H104.753C107.677 34.1223 109.113 34.7565 109.113 37.9645C109.113 40.1093 109.113 41.3636 106.713 41.9278V42.063C108.099 42.1143 108.994 42.8884 108.994 44.3478V46.9403H105.616V45.1405C105.648 44.18 105.244 43.5272 104.23 43.5272H101.614V46.9403H98.2362V34.071H98.2316ZM104.225 40.543C105.68 40.543 105.63 39.9928 105.63 38.5333C105.63 37.3816 105.341 37.0552 104.225 37.0552H101.609V40.5383H104.225V40.543Z" fill="white"/>
<path d="M114.226 46.9403H110.848V34.071H114.226V46.9403Z" fill="white"/>
<path d="M119.627 43.9561H124.914V46.9403H116.25V34.071H119.627V43.9561Z" fill="white"/>
<path d="M129.508 43.9561H134.795V46.9403H126.131V34.071H129.508V43.9561Z" fill="white"/>
<path d="M139.454 46.9403H136.076V34.071H139.454V46.9403Z" fill="white"/>
<path d="M144.91 46.9403H141.533V34.071H147.242L150.872 43.9561H151.005L150.803 34.071H154.181V46.9403H148.421L144.842 37.0552H144.709L144.91 46.9403Z" fill="white"/>
<path d="M163.943 38.0717C163.874 36.7661 162.777 36.7848 161.763 36.7848C159.33 36.7848 159.262 37.5401 159.229 39.6151V41.7087C159.229 43.9888 160.005 44.2313 161.763 44.2313C163.521 44.2313 163.943 43.8349 163.943 42.0537H161.611V39.6664H167.371V41.9138C167.371 46.2549 166.288 47.0429 161.763 47.0429C157.775 47.0429 155.751 46.3575 155.751 42.1843V38.8551C155.751 34.5979 158.045 33.9638 161.763 33.9638C165.04 33.9638 167.371 33.9824 167.371 38.067H163.943V38.0717Z" fill="white"/>
<path d="M178.519 46.9403H175.141V34.071H178.519V46.9403Z" fill="white"/>
<path d="M183.971 46.9403H180.593V34.071H186.302L189.933 43.9561H190.066L189.864 34.071H193.241V46.9403H187.482L183.902 37.0552H183.769L183.971 46.9403Z" fill="white"/>
<path d="M206.014 42.0677V42.4454C206.014 43.8536 205.995 45.1218 204.848 46.101C203.701 47.0616 202.296 47.0429 200.828 47.0429C197.381 47.0429 194.866 46.8704 194.866 42.1703V38.8411C194.866 34.5839 197.11 33.9684 200.828 33.9684C204.307 33.9684 205.927 34.3275 205.995 38.1883V38.6872H202.517V38.1883C202.397 37.0366 201.603 36.9526 200.456 36.9526C198.528 36.9526 198.345 37.5541 198.345 39.3913V41.4009C198.345 43.322 198.428 44.0587 200.456 44.0587C201.856 44.0587 202.535 43.9561 202.535 42.4454V42.0677H206.014Z" fill="white"/>
<path d="M210.824 46.9403H208.088V43.9561H210.824V46.9403Z" fill="white"/>
<path d="M29.877 19.4765C29.8082 18.1709 28.7113 18.1896 27.6971 18.1896C25.2647 18.1896 25.1958 18.9449 25.1637 21.0199V23.1135C25.1637 25.3936 25.9393 25.636 27.6971 25.636C29.4548 25.636 29.877 25.2397 29.877 23.4585H27.5456V21.0712H33.3053V23.3186C33.3053 27.6597 32.2222 28.4477 27.6971 28.4477C23.7089 28.4477 21.6849 27.7623 21.6849 23.5891V20.2598C21.6849 16.0027 23.9842 15.3686 27.6971 15.3686C30.9739 15.3686 33.3053 15.3872 33.3053 19.4718H29.877V19.4765Z" fill="#144683"/>
<path d="M38.4087 20.6468H43.8151V23.0342H38.4087V25.5381H44.2878V28.3544H35.0309V15.4851H44.1684V18.3015H38.4087V20.6515V20.6468Z" fill="#144683"/>
<path d="M45.9537 23.7336V20.0966C45.9537 16.1333 48.3861 15.3779 51.8144 15.3779C55.2427 15.3779 57.6751 16.1333 57.6751 20.0966V23.7336C57.6751 27.697 55.2427 28.4524 51.8144 28.4524C48.3861 28.4524 45.9537 27.697 45.9537 23.7336ZM54.1963 23.3559V20.4557C54.1963 18.5533 53.5721 18.3621 51.8144 18.3621C50.0566 18.3621 49.483 18.5486 49.4325 20.4557V23.3559C49.483 25.277 50.0566 25.4682 51.8144 25.4682C53.5721 25.4682 54.1963 25.2817 54.1963 23.3559Z" fill="#144683"/>
<path d="M72.0812 20.5536H61.5072V23.9621H72.0812V20.5536Z" fill="white"/>
<path d="M65.9819 23.9621H61.5072V20.5536H67.4918L65.9819 23.9621Z" fill="#144681"/>
</svg>
