<svg width="268" height="39" viewBox="0 0 268 39" fill="none" xmlns="http://www.w3.org/2000/svg">
<g clip-path="url(#clip0_1262_180)">
<path d="M72.7033 6.47231H79.5276V9.4049H72.7033V12.4807H80.1243V15.9402H68.4396V0.12601H79.9736V3.58555H72.7033V6.47231Z" fill="white"/>
<path d="M87.0933 15.9345H82.8296V0.12601H90.0362L94.6186 12.2688H94.7866L94.5317 0.12601H98.7954V15.9345H91.5251L87.0064 3.79174H86.8384L87.0933 15.9345Z" fill="white"/>
<path d="M111.187 0.12601H115.601L110.932 15.9345H104.281L99.757 0.12601H104.084L107.537 12.3088H107.665L111.187 0.12601Z" fill="white"/>
<path d="M120.838 15.9345H116.574V0.12601H120.838V15.9345Z" fill="white"/>
<path d="M123.375 0.12601H131.607C135.298 0.189014 137.111 0.967982 137.111 4.90865C137.111 7.54339 137.111 9.08415 134.081 9.7772V9.9433C135.831 10.0063 136.96 10.9571 136.96 12.7499V15.9345H132.697V13.7236C132.737 12.5437 132.227 11.7418 130.947 11.7418H127.639V15.9345H123.375V0.12601ZM130.947 8.07607C132.783 8.07607 132.714 7.4002 132.714 5.60743C132.714 4.19268 132.349 3.79174 130.947 3.79174H127.639V8.07034H130.947V8.07607Z" fill="white"/>
<path d="M138.681 10.2641V5.79644C138.681 0.927889 141.751 0 146.079 0C150.406 0 153.476 0.927889 153.476 5.79644V10.2641C153.476 15.1326 150.406 16.0605 146.079 16.0605C141.751 16.0605 138.681 15.1326 138.681 10.2641ZM149.085 9.80011V6.23747C149.085 3.90057 148.297 3.66573 146.079 3.66573C143.86 3.66573 143.136 3.89484 143.072 6.23747V9.80011C143.136 12.1599 143.86 12.3948 146.079 12.3948C148.297 12.3948 149.085 12.1657 149.085 9.80011Z" fill="white"/>
<path d="M159.745 15.9345H155.481V0.12601H162.687L167.27 12.2688H167.438L167.183 0.12601H171.447V15.9345H164.176L159.658 3.79174H159.49L159.745 15.9345Z" fill="white"/>
<path d="M174.048 15.9345V0.12601H180.808L183.855 10.0521H184.006L186.908 0.12601H193.837V15.9345H189.573L190.002 3.81465H189.851L185.802 15.9345H182.112L178.016 3.81465H177.888L178.317 15.9345H174.048Z" fill="white"/>
<path d="M200.742 6.47231H207.566V9.4049H200.742V12.4807H208.163V15.9402H196.479V0.12601H208.013V3.58555H200.742V6.47231Z" fill="white"/>
<path d="M215.132 15.9345H210.869V0.12601H218.075L222.657 12.2688H222.825L222.571 0.12601H226.834V15.9345H219.564L215.045 3.79174H214.877L215.132 15.9345Z" fill="white"/>
<path d="M236.515 15.9345H232.251V3.79174H228.155V0.12601H240.819V3.79174H236.515V15.9345Z" fill="white"/>
<path d="M245.169 13.2196L244.382 15.9402H239.944L244.741 0.12601H251.223L256.084 15.9345H251.733L250.899 13.2138H245.164L245.169 13.2196ZM248.025 3.2877L246.085 10.138H250.053L248.072 3.2877H248.025Z" fill="white"/>
<path d="M261.326 12.2688H268V15.9345H257.063V0.12601H261.326V12.2688Z" fill="white"/>
<path d="M10.3407 5.04038C10.2538 3.43663 8.86922 3.45954 7.58895 3.45954C4.51861 3.45954 4.43172 4.38742 4.39116 6.93625V9.508C4.39116 12.3088 5.3702 12.6067 7.58895 12.6067C9.8077 12.6067 10.3407 12.1198 10.3407 9.93185H7.39778V6.99926H14.6681V9.76002C14.6681 15.0925 13.3009 16.0605 7.58895 16.0605C2.55475 16.0605 0 15.2185 0 10.0922V6.00264C0 0.778968 2.90234 0 7.58895 0C11.7252 0 14.6681 0.0229108 14.6681 5.04038H10.3407Z" fill="white"/>
<path d="M21.1042 6.47231H27.9285V9.4049H21.1042V12.4807H28.5252V15.9402H16.8405V0.12601H28.3746V3.58555H21.1042V6.47231Z" fill="white"/>
<path d="M30.6339 10.2641V5.79644C30.6339 0.927889 33.7042 0 38.0316 0C42.3591 0 45.4294 0.927889 45.4294 5.79644V10.2641C45.4294 15.1326 42.3591 16.0605 38.0316 16.0605C33.7042 16.0605 30.6339 15.1326 30.6339 10.2641ZM41.0383 9.80011V6.23747C41.0383 3.90057 40.2504 3.66573 38.0316 3.66573C35.8129 3.66573 35.0888 3.89484 35.025 6.23747V9.80011C35.0888 12.1599 35.8129 12.3948 38.0316 12.3948C40.2504 12.3948 41.0383 12.1657 41.0383 9.80011Z" fill="white"/>
<path d="M63.6139 6.36348H50.2667V10.5504H63.6139V6.36348Z" fill="white"/>
<path d="M54.6231 23.0655H62.7276C67.1825 23.0655 69.1637 24.7093 69.1637 29.1999V32.5105C69.1637 36.8292 67.756 38.8797 63.3011 38.8797H54.6231V23.0655ZM58.8868 35.2082H62.6175C64.1933 35.2082 64.7726 34.1772 64.7726 32.5105V29.1999C64.7726 27.1551 64.1121 26.7312 62.6175 26.7312H58.8868V35.2082Z" fill="white"/>
<path d="M71.2492 23.0655H79.4812C83.1714 23.1285 84.9847 23.9075 84.9847 27.8481C84.9847 30.4829 84.9847 32.0236 81.9549 32.7167V32.8828C83.7044 32.9458 84.834 33.8966 84.834 35.6894V38.874H80.5703V36.6631C80.6109 35.4832 80.1011 34.6813 78.8208 34.6813H75.5188V38.874H71.255V23.0655H71.2492ZM78.8208 31.0155C80.6572 31.0155 80.5935 30.3397 80.5935 28.5469C80.5935 27.1322 80.2285 26.7312 78.8208 26.7312H75.5188V31.0098H78.8208V31.0155Z" fill="white"/>
<path d="M91.4382 38.8797H87.1744V23.0712H91.4382V38.8797Z" fill="white"/>
<path d="M98.2624 35.2082H104.936V38.874H93.9987V23.0655H98.2624V35.2082Z" fill="white"/>
<path d="M110.729 35.2082H117.403V38.874H106.465V23.0655H110.729V35.2082Z" fill="white"/>
<path d="M123.289 38.8797H119.025V23.0712H123.289V38.8797Z" fill="white"/>
<path d="M130.171 38.8797H125.907V23.0712H133.114L137.696 35.214H137.864L137.609 23.0712H141.873V38.8797H134.602L130.084 26.7369H129.916L130.171 38.8797Z" fill="white"/>
<path d="M154.201 27.9799C154.114 26.3761 152.729 26.399 151.449 26.399C148.378 26.399 148.292 27.3269 148.251 29.8757V32.4475C148.251 35.2483 149.23 35.5462 151.449 35.5462C153.668 35.5462 154.201 35.0593 154.201 32.8713H151.258V29.9387H158.528V32.6995C158.528 38.032 157.161 39 151.449 39C146.415 39 143.86 38.158 143.86 33.0317V28.9421C143.86 23.7127 146.756 22.9337 151.449 22.9337C155.585 22.9337 158.528 22.9567 158.528 27.9741H154.201V27.9799Z" fill="white"/>
<path d="M172.594 38.8797H168.33V23.0712H172.594V38.8797Z" fill="white"/>
<path d="M179.482 38.8797H175.218V23.0712H182.424L187.007 35.214H187.175L186.92 23.0712H191.184V38.8797H183.913L179.395 26.7369H179.227L179.482 38.8797Z" fill="white"/>
<path d="M207.3 32.8885V33.3524C207.3 35.0822 207.277 36.6402 205.829 37.843C204.38 39.0229 202.608 39 200.754 39C196.403 39 193.229 38.788 193.229 33.0145V28.9249C193.229 23.6955 196.061 22.9395 200.754 22.9395C205.145 22.9395 207.19 23.3805 207.277 28.123V28.7359H202.886V28.123C202.735 26.7083 201.733 26.6052 200.285 26.6052C197.851 26.6052 197.62 27.3441 197.62 29.6008V32.0694C197.62 34.4293 197.724 35.3342 200.285 35.3342C202.051 35.3342 202.909 35.2082 202.909 33.3524V32.8885H207.3Z" fill="white"/>
<path d="M213.377 38.8797H209.924V35.214H213.377V38.8797Z" fill="white"/>
</g>
<defs>
<clipPath id="clip0_1262_180">
<rect width="268" height="39" fill="white"/>
</clipPath>
</defs>
</svg>
