<svg width="274" height="89" viewBox="0 0 274 89" fill="none" xmlns="http://www.w3.org/2000/svg">
<path d="M268.065 28.1652V17.1891H165.691V17.5256C163.981 17.0752 162.373 17.0752 161.451 17.0752C160.045 17.0752 157 17.0752 154.475 18.7061C152.373 17.2564 149.803 17.2098 148.582 17.1891H127.309L127.268 17.3289L127.227 17.1891H93.0438L102.884 0H0L51.9726 89L82.9254 34.8907H88.2885V39.7627H98.5615V60.4051H110.401C111.462 60.4051 112.451 60.2963 113.348 60.0737V60.4051H184.403V60.1151C186.062 60.519 187.685 60.519 188.792 60.519C195.047 60.519 199.209 58.8467 199.209 50.6818L199.683 60.4051H228.251V60.1358C229.863 60.519 231.455 60.519 232.64 60.519H232.81C233.846 60.519 235.221 60.519 236.669 60.1203V60.4051H247.983V48.8076H242.578V48.264L242.558 46.7108V46.4726C242.496 43.1073 241.445 41.0363 240.013 39.7627H251.97L252.156 39.1207L252.352 39.7627H274V28.1652H268.065Z" fill="white"/>
<path d="M51.7923 80.6747L7.05814 4.0591H95.6197L51.7923 80.6747Z" fill="#144683"/>
<path d="M96.0576 26.9848H102.127V29.6356H96.0576V32.4159H102.657V35.543H92.2658V21.2533H102.523V24.3805H96.0576V26.9899V26.9848Z" fill="#144683"/>
<path d="M108.855 35.5379H105.063V21.2482H111.472L115.547 32.2243H115.697L115.47 21.2482H119.262V35.5379H112.796L108.778 24.5617H108.628L108.855 35.5379Z" fill="#144683"/>
<path d="M130.277 21.2482H134.202L130.05 35.5379H124.136L120.117 21.2482H123.966L127.036 32.2606H127.15L130.277 21.2482Z" fill="#144683"/>
<path d="M138.865 35.5379H135.073V21.2482H138.865V35.5379Z" fill="#144683"/>
<path d="M141.122 21.2482H148.442C151.724 21.3051 153.337 22.0092 153.337 25.5713C153.337 27.9529 153.337 29.3457 150.642 29.9721V30.1223C152.198 30.1792 153.203 31.0387 153.203 32.6592V35.5379H149.411V33.5394C149.447 32.4728 148.994 31.748 147.855 31.748H144.913V35.5379H141.122V21.2482ZM147.855 28.4344C149.488 28.4344 149.426 27.8235 149.426 26.203C149.426 24.9241 149.102 24.5617 147.855 24.5617H144.913V28.4293H147.855V28.4344Z" fill="#144683"/>
<path d="M154.733 30.4122V26.3738C154.733 21.973 157.463 21.1343 161.312 21.1343C165.16 21.1343 167.891 21.973 167.891 26.3738V30.4122C167.891 34.813 165.16 35.6518 161.312 35.6518C157.463 35.6518 154.733 34.813 154.733 30.4122ZM163.986 29.9928V26.7725C163.986 24.6601 163.285 24.4478 161.312 24.4478C159.339 24.4478 158.695 24.6549 158.638 26.7725V29.9928C158.695 32.1259 159.339 32.3382 161.312 32.3382C163.285 32.3382 163.986 32.1311 163.986 29.9928Z" fill="#144683"/>
<path d="M173.465 35.5379H169.673V21.2482H176.082L180.158 32.2243H180.307L180.08 21.2482H183.872V35.5379H177.407L173.388 24.5617H173.239L173.465 35.5379Z" fill="#144683"/>
<path d="M186.185 35.5379V21.2482H192.198L194.908 30.2207H195.042L197.623 21.2482H203.784V35.5379H199.993L200.374 24.5824H200.24L196.639 35.5379H193.357L189.714 24.5824H189.601L189.982 35.5379H186.185Z" fill="#144683"/>
<path d="M209.925 26.9848H215.994V29.6356H209.925V32.4159H216.525V35.543H206.134V21.2533H216.391V24.3805H209.925V26.9899V26.9848Z" fill="#144683"/>
<path d="M222.718 35.5379H218.926V21.2482H225.335L229.41 32.2243H229.559L229.333 21.2482H233.125V35.5379H226.659L222.64 24.5617H222.491L222.718 35.5379Z" fill="#144683"/>
<path d="M241.739 35.5379H237.947V24.5617H234.304V21.2482H245.567V24.5617H241.739V35.5379Z" fill="#144683"/>
<path d="M249.43 33.0838L248.73 35.543H244.783L249.049 21.2533H254.814L259.137 35.543H255.268L254.526 33.0838H249.425H249.43ZM251.976 24.1061L250.25 30.2983H253.779L252.017 24.1061H251.976Z" fill="#144683"/>
<path d="M263.804 32.2243H269.739V35.5379H260.013V21.2482H263.804V32.2243Z" fill="#144683"/>
<path d="M102.539 41.8906H109.746C113.708 41.8906 115.47 43.3765 115.47 47.4356V50.4282C115.47 54.3319 114.218 56.1855 110.256 56.1855H102.539V41.8906ZM106.331 52.8667H109.648C111.05 52.8667 111.565 51.9348 111.565 50.4282V47.4356C111.565 45.5873 110.978 45.2041 109.648 45.2041H106.331V52.8667Z" fill="#144683"/>
<path d="M117.325 41.8906H124.646C127.927 41.9475 129.54 42.6517 129.54 46.2137C129.54 48.5953 129.54 49.9881 126.846 50.6145V50.7647C128.401 50.8216 129.406 51.6811 129.406 53.3016V56.1803H125.614V54.1818C125.65 53.1152 125.197 52.3904 124.058 52.3904H121.122V56.1803H117.33V41.8906H117.325ZM124.058 49.0768C125.692 49.0768 125.635 48.4659 125.635 46.8454C125.635 45.5665 125.31 45.2041 124.058 45.2041H121.122V49.0717H124.058V49.0768Z" fill="#144683"/>
<path d="M135.279 56.1855H131.487V41.8958H135.279V56.1855Z" fill="#144683"/>
<path d="M141.348 52.8667H147.283V56.1803H137.556V41.8906H141.348V52.8667Z" fill="#144683"/>
<path d="M152.435 52.8667H158.37V56.1803H148.643V41.8906H152.435V52.8667Z" fill="#144683"/>
<path d="M163.605 56.1855H159.813V41.8958H163.605V56.1855Z" fill="#144683"/>
<path d="M169.725 56.1855H165.933V41.8958H172.342L176.417 52.8719H176.567L176.34 41.8958H180.132V56.1855H173.666L169.648 45.2093H169.498L169.725 56.1855Z" fill="#144683"/>
<path d="M191.095 46.3328C191.018 44.8831 189.787 44.9038 188.648 44.9038C185.918 44.9038 185.84 45.7426 185.804 48.0465V50.3712C185.804 52.903 186.675 53.1722 188.648 53.1722C190.621 53.1722 191.095 52.7321 191.095 50.7543H188.478V48.1035H194.944V50.599C194.944 55.4192 193.728 56.2942 188.648 56.2942C184.171 56.2942 181.899 55.5331 181.899 50.8993V47.2026C181.899 42.4756 184.475 41.7715 188.648 41.7715C192.327 41.7715 194.944 41.7922 194.944 46.3276H191.095V46.3328Z" fill="#144683"/>
<path d="M207.453 56.1855H203.661V41.8958H207.453V56.1855Z" fill="#144683"/>
<path d="M213.578 56.1855H209.786V41.8958H216.195L220.271 52.8719H220.42L220.193 41.8958H223.985V56.1855H217.519L213.501 45.2093H213.352L213.578 56.1855Z" fill="#144683"/>
<path d="M238.318 50.7699V51.1892C238.318 52.7528 238.297 54.1611 237.009 55.2483C235.721 56.3149 234.145 56.2942 232.496 56.2942C228.627 56.2942 225.804 56.1026 225.804 50.8838V47.1871C225.804 42.4601 228.323 41.7767 232.496 41.7767C236.401 41.7767 238.22 42.1753 238.297 46.4622V47.0162H234.392V46.4622C234.258 45.1834 233.367 45.0902 232.079 45.0902C229.915 45.0902 229.709 45.7581 229.709 47.798V50.0295C229.709 52.1626 229.802 52.9806 232.079 52.9806C233.65 52.9806 234.413 52.8667 234.413 51.1892V50.7699H238.318Z" fill="#144683"/>
<path d="M243.722 56.1855H240.652V52.8719H243.722V56.1855Z" fill="#144683"/>
<path d="M40.5972 25.6904C40.5199 24.2407 39.2886 24.2614 38.15 24.2614C35.4195 24.2614 35.3422 25.1002 35.3061 27.4041V29.7288C35.3061 32.2606 36.1768 32.5298 38.15 32.5298C40.1232 32.5298 40.5972 32.0897 40.5972 30.1119H37.98V27.4611H44.4457V29.9566C44.4457 34.7768 43.2298 35.6518 38.15 35.6518C33.673 35.6518 31.401 34.8907 31.401 30.2569V26.5602C31.401 21.8332 33.9821 21.1291 38.15 21.1291C41.8285 21.1291 44.4457 21.1498 44.4457 25.6852H40.5972V25.6904Z" fill="white"/>
<path d="M50.1694 26.9848H56.2384V29.6356H50.1694V32.4159H56.7691V35.543H46.3776V21.2533H56.6351V24.3805H50.1694V26.9899V26.9848Z" fill="white"/>
<path d="M58.6444 30.4122V26.3738C58.6444 21.973 61.3749 21.1343 65.2234 21.1343C69.0719 21.1343 71.8024 21.973 71.8024 26.3738V30.4122C71.8024 34.813 69.0719 35.6518 65.2234 35.6518C61.3749 35.6518 58.6444 34.813 58.6444 30.4122ZM67.8972 29.9928V26.7725C67.8972 24.6601 67.1966 24.4478 65.2234 24.4478C63.2502 24.4478 62.6062 24.6549 62.5495 26.7725V29.9928C62.6062 32.1259 63.2502 32.3382 65.2234 32.3382C67.1966 32.3382 67.8972 32.1311 67.8972 29.9928Z" fill="white"/>
<path d="M87.9743 26.8864H76.1042V30.6711H87.9743V26.8864Z" fill="#144681"/>
<path d="M81.1222 30.6711H76.1042V26.8864H82.8172L81.1222 30.6711Z" fill="white"/>
</svg>
